<mxfile host="app.diagrams.net" modified="2023-09-18T08:11:12.892Z" agent="Mozilla/5.0 (Windows NT 10.0; Win64; x64) AppleWebKit/537.36 (KHTML, like Gecko) Chrome/117.0.0.0 Safari/537.36 Edg/117.0.2045.31" etag="bJ8OZtfg8lh9NOseqgTB" version="21.7.5" type="device">
  <diagram name="Page-1" id="4wtzM6G_ci-mR42SiwE1">
    <mxGraphModel dx="1274" dy="1372" grid="1" gridSize="10" guides="1" tooltips="1" connect="1" arrows="1" fold="1" page="1" pageScale="1" pageWidth="827" pageHeight="1169" math="0" shadow="0">
      <root>
        <mxCell id="0" />
        <mxCell id="1" parent="0" />
        <mxCell id="akSoEckrGpgi3tMZV9ip-2" value="Movie" style="whiteSpace=wrap;html=1;align=center;" parent="1" vertex="1">
          <mxGeometry x="220" y="-10" width="100" height="40" as="geometry" />
        </mxCell>
        <mxCell id="akSoEckrGpgi3tMZV9ip-3" value="Production company" style="whiteSpace=wrap;html=1;align=center;" parent="1" vertex="1">
          <mxGeometry x="540" y="310" width="100" height="40" as="geometry" />
        </mxCell>
        <mxCell id="akSoEckrGpgi3tMZV9ip-4" value="Actor" style="whiteSpace=wrap;html=1;align=center;" parent="1" vertex="1">
          <mxGeometry x="600" y="-10" width="100" height="40" as="geometry" />
        </mxCell>
        <mxCell id="akSoEckrGpgi3tMZV9ip-5" value="Director" style="whiteSpace=wrap;html=1;align=center;" parent="1" vertex="1">
          <mxGeometry x="10" y="300" width="100" height="40" as="geometry" />
        </mxCell>
        <mxCell id="akSoEckrGpgi3tMZV9ip-6" value="Genre" style="whiteSpace=wrap;html=1;align=center;" parent="1" vertex="1">
          <mxGeometry x="-140" y="-10" width="100" height="40" as="geometry" />
        </mxCell>
        <mxCell id="akSoEckrGpgi3tMZV9ip-8" value="Name" style="ellipse;whiteSpace=wrap;html=1;align=center;fontStyle=4;" parent="1" vertex="1">
          <mxGeometry x="-230" y="-80" width="100" height="40" as="geometry" />
        </mxCell>
        <mxCell id="akSoEckrGpgi3tMZV9ip-9" value="Address" style="ellipse;whiteSpace=wrap;html=1;align=center;" parent="1" vertex="1">
          <mxGeometry x="620" y="380" width="100" height="40" as="geometry" />
        </mxCell>
        <mxCell id="akSoEckrGpgi3tMZV9ip-10" value="Name" style="ellipse;whiteSpace=wrap;html=1;align=center;fontStyle=4;" parent="1" vertex="1">
          <mxGeometry x="480" y="380" width="100" height="40" as="geometry" />
        </mxCell>
        <mxCell id="akSoEckrGpgi3tMZV9ip-12" style="edgeStyle=orthogonalEdgeStyle;rounded=0;orthogonalLoop=1;jettySize=auto;html=1;exitX=0.5;exitY=1;exitDx=0;exitDy=0;" parent="1" source="akSoEckrGpgi3tMZV9ip-5" target="akSoEckrGpgi3tMZV9ip-5" edge="1">
          <mxGeometry relative="1" as="geometry" />
        </mxCell>
        <mxCell id="akSoEckrGpgi3tMZV9ip-13" value="Identification" style="ellipse;whiteSpace=wrap;html=1;align=center;fontStyle=4;" parent="1" vertex="1">
          <mxGeometry x="220" y="-120" width="100" height="40" as="geometry" />
        </mxCell>
        <mxCell id="akSoEckrGpgi3tMZV9ip-14" value="Year of release" style="ellipse;whiteSpace=wrap;html=1;align=center;" parent="1" vertex="1">
          <mxGeometry x="290" y="-190" width="70" height="40" as="geometry" />
        </mxCell>
        <mxCell id="akSoEckrGpgi3tMZV9ip-15" value="Name" style="ellipse;whiteSpace=wrap;html=1;align=center;" parent="1" vertex="1">
          <mxGeometry x="180" y="-190" width="70" height="40" as="geometry" />
        </mxCell>
        <mxCell id="akSoEckrGpgi3tMZV9ip-17" value="Length in minute" style="ellipse;whiteSpace=wrap;html=1;align=center;" parent="1" vertex="1">
          <mxGeometry x="110" y="-120" width="70" height="40" as="geometry" />
        </mxCell>
        <mxCell id="akSoEckrGpgi3tMZV9ip-21" value="Plot outline" style="ellipse;whiteSpace=wrap;html=1;align=center;" parent="1" vertex="1">
          <mxGeometry x="340" y="-120" width="70" height="40" as="geometry" />
        </mxCell>
        <mxCell id="B7Q3ASGX7pAgMfYOR0Yh-1" value="Identification" style="ellipse;whiteSpace=wrap;html=1;align=center;fontStyle=4;" parent="1" vertex="1">
          <mxGeometry x="670" y="-90" width="100" height="40" as="geometry" />
        </mxCell>
        <mxCell id="B7Q3ASGX7pAgMfYOR0Yh-2" value="D.O.B" style="ellipse;whiteSpace=wrap;html=1;align=center;" parent="1" vertex="1">
          <mxGeometry x="770" y="-140" width="100" height="40" as="geometry" />
        </mxCell>
        <mxCell id="B7Q3ASGX7pAgMfYOR0Yh-3" value="Name" style="ellipse;whiteSpace=wrap;html=1;align=center;" parent="1" vertex="1">
          <mxGeometry x="640" y="-160" width="100" height="40" as="geometry" />
        </mxCell>
        <mxCell id="B7Q3ASGX7pAgMfYOR0Yh-4" value="Identification" style="ellipse;whiteSpace=wrap;html=1;align=center;fontStyle=4;" parent="1" vertex="1">
          <mxGeometry x="10" y="370" width="100" height="40" as="geometry" />
        </mxCell>
        <mxCell id="B7Q3ASGX7pAgMfYOR0Yh-5" value="D.O.B" style="ellipse;whiteSpace=wrap;html=1;align=center;" parent="1" vertex="1">
          <mxGeometry x="80" y="440" width="100" height="40" as="geometry" />
        </mxCell>
        <mxCell id="B7Q3ASGX7pAgMfYOR0Yh-6" value="Name" style="ellipse;whiteSpace=wrap;html=1;align=center;" parent="1" vertex="1">
          <mxGeometry x="-60" y="440" width="100" height="40" as="geometry" />
        </mxCell>
        <mxCell id="B7Q3ASGX7pAgMfYOR0Yh-8" value="" style="endArrow=none;html=1;rounded=0;" parent="1" source="B7Q3ASGX7pAgMfYOR0Yh-7" target="akSoEckrGpgi3tMZV9ip-2" edge="1">
          <mxGeometry relative="1" as="geometry">
            <mxPoint x="-170" y="100" as="sourcePoint" />
            <mxPoint x="-10" y="100" as="targetPoint" />
          </mxGeometry>
        </mxCell>
        <mxCell id="B7Q3ASGX7pAgMfYOR0Yh-10" value="(1,N)" style="resizable=0;html=1;whiteSpace=wrap;align=right;verticalAlign=bottom;" parent="B7Q3ASGX7pAgMfYOR0Yh-8" connectable="0" vertex="1">
          <mxGeometry x="1" relative="1" as="geometry">
            <mxPoint x="-10" as="offset" />
          </mxGeometry>
        </mxCell>
        <mxCell id="B7Q3ASGX7pAgMfYOR0Yh-11" value="" style="endArrow=none;html=1;rounded=0;" parent="1" source="akSoEckrGpgi3tMZV9ip-6" target="B7Q3ASGX7pAgMfYOR0Yh-7" edge="1">
          <mxGeometry relative="1" as="geometry">
            <mxPoint x="-30" y="20" as="sourcePoint" />
            <mxPoint x="30" y="9.549999999999997" as="targetPoint" />
          </mxGeometry>
        </mxCell>
        <mxCell id="B7Q3ASGX7pAgMfYOR0Yh-12" value="(1,N)" style="resizable=0;html=1;whiteSpace=wrap;align=left;verticalAlign=bottom;" parent="B7Q3ASGX7pAgMfYOR0Yh-11" connectable="0" vertex="1">
          <mxGeometry x="-1" relative="1" as="geometry">
            <mxPoint x="10" as="offset" />
          </mxGeometry>
        </mxCell>
        <mxCell id="B7Q3ASGX7pAgMfYOR0Yh-7" value="Classify" style="shape=rhombus;perimeter=rhombusPerimeter;whiteSpace=wrap;html=1;align=center;" parent="1" vertex="1">
          <mxGeometry x="10" y="-20" width="120" height="60" as="geometry" />
        </mxCell>
        <mxCell id="B7Q3ASGX7pAgMfYOR0Yh-20" value="Appear_in" style="shape=rhombus;perimeter=rhombusPerimeter;whiteSpace=wrap;html=1;align=center;" parent="1" vertex="1">
          <mxGeometry x="400" y="-20" width="120" height="60" as="geometry" />
        </mxCell>
        <mxCell id="B7Q3ASGX7pAgMfYOR0Yh-21" value="" style="endArrow=none;html=1;rounded=0;" parent="1" source="B7Q3ASGX7pAgMfYOR0Yh-20" target="akSoEckrGpgi3tMZV9ip-2" edge="1">
          <mxGeometry relative="1" as="geometry">
            <mxPoint x="230" y="160" as="sourcePoint" />
            <mxPoint x="390" y="160" as="targetPoint" />
          </mxGeometry>
        </mxCell>
        <mxCell id="B7Q3ASGX7pAgMfYOR0Yh-22" value="(1,N)" style="resizable=0;html=1;whiteSpace=wrap;align=right;verticalAlign=bottom;" parent="B7Q3ASGX7pAgMfYOR0Yh-21" connectable="0" vertex="1">
          <mxGeometry x="1" relative="1" as="geometry">
            <mxPoint x="40" as="offset" />
          </mxGeometry>
        </mxCell>
        <mxCell id="B7Q3ASGX7pAgMfYOR0Yh-23" value="" style="endArrow=none;html=1;rounded=0;" parent="1" source="B7Q3ASGX7pAgMfYOR0Yh-20" target="akSoEckrGpgi3tMZV9ip-4" edge="1">
          <mxGeometry relative="1" as="geometry">
            <mxPoint x="500.00285714285735" y="83.85142857142844" as="sourcePoint" />
            <mxPoint x="635.5" y="10.000000000000028" as="targetPoint" />
          </mxGeometry>
        </mxCell>
        <mxCell id="B7Q3ASGX7pAgMfYOR0Yh-24" value="(1,N)" style="resizable=0;html=1;whiteSpace=wrap;align=right;verticalAlign=bottom;" parent="B7Q3ASGX7pAgMfYOR0Yh-23" connectable="0" vertex="1">
          <mxGeometry x="1" relative="1" as="geometry">
            <mxPoint x="-10" as="offset" />
          </mxGeometry>
        </mxCell>
        <mxCell id="B7Q3ASGX7pAgMfYOR0Yh-26" value="Direct" style="shape=rhombus;perimeter=rhombusPerimeter;whiteSpace=wrap;html=1;align=center;" parent="1" vertex="1">
          <mxGeometry x="210" y="190" width="120" height="60" as="geometry" />
        </mxCell>
        <mxCell id="B7Q3ASGX7pAgMfYOR0Yh-27" value="Act_in" style="shape=rhombus;perimeter=rhombusPerimeter;whiteSpace=wrap;html=1;align=center;" parent="1" vertex="1">
          <mxGeometry y="130" width="120" height="60" as="geometry" />
        </mxCell>
        <mxCell id="B7Q3ASGX7pAgMfYOR0Yh-28" value="Produce" style="shape=rhombus;perimeter=rhombusPerimeter;whiteSpace=wrap;html=1;align=center;" parent="1" vertex="1">
          <mxGeometry x="390" y="160" width="120" height="60" as="geometry" />
        </mxCell>
        <mxCell id="B7Q3ASGX7pAgMfYOR0Yh-30" value="" style="endArrow=none;html=1;rounded=0;" parent="1" source="akSoEckrGpgi3tMZV9ip-3" target="B7Q3ASGX7pAgMfYOR0Yh-28" edge="1">
          <mxGeometry relative="1" as="geometry">
            <mxPoint x="-29.999999999999773" y="310" as="sourcePoint" />
            <mxPoint x="40" y="310" as="targetPoint" />
          </mxGeometry>
        </mxCell>
        <mxCell id="B7Q3ASGX7pAgMfYOR0Yh-31" value="(1,N)" style="resizable=0;html=1;whiteSpace=wrap;align=left;verticalAlign=bottom;" parent="B7Q3ASGX7pAgMfYOR0Yh-30" connectable="0" vertex="1">
          <mxGeometry x="-1" relative="1" as="geometry">
            <mxPoint x="-20" y="-20" as="offset" />
          </mxGeometry>
        </mxCell>
        <mxCell id="B7Q3ASGX7pAgMfYOR0Yh-32" value="" style="endArrow=none;html=1;rounded=0;" parent="1" source="B7Q3ASGX7pAgMfYOR0Yh-28" target="akSoEckrGpgi3tMZV9ip-2" edge="1">
          <mxGeometry relative="1" as="geometry">
            <mxPoint x="-19.999999999999773" y="80" as="sourcePoint" />
            <mxPoint x="50" y="80" as="targetPoint" />
          </mxGeometry>
        </mxCell>
        <mxCell id="B7Q3ASGX7pAgMfYOR0Yh-33" value="(1,1)" style="resizable=0;html=1;whiteSpace=wrap;align=left;verticalAlign=bottom;" parent="B7Q3ASGX7pAgMfYOR0Yh-32" connectable="0" vertex="1">
          <mxGeometry x="-1" relative="1" as="geometry">
            <mxPoint x="-110" y="-110" as="offset" />
          </mxGeometry>
        </mxCell>
        <mxCell id="B7Q3ASGX7pAgMfYOR0Yh-37" value="" style="endArrow=none;html=1;rounded=0;" parent="1" source="B7Q3ASGX7pAgMfYOR0Yh-27" target="akSoEckrGpgi3tMZV9ip-5" edge="1">
          <mxGeometry relative="1" as="geometry">
            <mxPoint x="-80" y="220" as="sourcePoint" />
            <mxPoint x="80" y="220" as="targetPoint" />
          </mxGeometry>
        </mxCell>
        <mxCell id="B7Q3ASGX7pAgMfYOR0Yh-38" value="(0,N)" style="resizable=0;html=1;whiteSpace=wrap;align=right;verticalAlign=bottom;" parent="B7Q3ASGX7pAgMfYOR0Yh-37" connectable="0" vertex="1">
          <mxGeometry x="1" relative="1" as="geometry">
            <mxPoint x="-10" y="-10" as="offset" />
          </mxGeometry>
        </mxCell>
        <mxCell id="B7Q3ASGX7pAgMfYOR0Yh-40" value="" style="endArrow=none;html=1;rounded=0;" parent="1" source="B7Q3ASGX7pAgMfYOR0Yh-27" target="akSoEckrGpgi3tMZV9ip-2" edge="1">
          <mxGeometry relative="1" as="geometry">
            <mxPoint x="40" y="195" as="sourcePoint" />
            <mxPoint x="-51" y="290" as="targetPoint" />
          </mxGeometry>
        </mxCell>
        <mxCell id="B7Q3ASGX7pAgMfYOR0Yh-41" value="(0,N)" style="resizable=0;html=1;whiteSpace=wrap;align=right;verticalAlign=bottom;" parent="B7Q3ASGX7pAgMfYOR0Yh-40" connectable="0" vertex="1">
          <mxGeometry x="1" relative="1" as="geometry">
            <mxPoint x="-29" y="20" as="offset" />
          </mxGeometry>
        </mxCell>
        <mxCell id="B7Q3ASGX7pAgMfYOR0Yh-42" value="" style="endArrow=none;html=1;rounded=0;" parent="1" source="akSoEckrGpgi3tMZV9ip-5" target="B7Q3ASGX7pAgMfYOR0Yh-26" edge="1">
          <mxGeometry relative="1" as="geometry">
            <mxPoint x="100" y="165" as="sourcePoint" />
            <mxPoint x="255" y="40" as="targetPoint" />
          </mxGeometry>
        </mxCell>
        <mxCell id="B7Q3ASGX7pAgMfYOR0Yh-43" value="(1,N)" style="resizable=0;html=1;whiteSpace=wrap;align=right;verticalAlign=bottom;" parent="B7Q3ASGX7pAgMfYOR0Yh-42" connectable="0" vertex="1">
          <mxGeometry x="1" relative="1" as="geometry">
            <mxPoint x="-109" y="55" as="offset" />
          </mxGeometry>
        </mxCell>
        <mxCell id="B7Q3ASGX7pAgMfYOR0Yh-44" value="" style="endArrow=none;html=1;rounded=0;" parent="1" source="B7Q3ASGX7pAgMfYOR0Yh-26" target="akSoEckrGpgi3tMZV9ip-2" edge="1">
          <mxGeometry relative="1" as="geometry">
            <mxPoint x="110" y="175" as="sourcePoint" />
            <mxPoint x="265" y="50" as="targetPoint" />
          </mxGeometry>
        </mxCell>
        <mxCell id="B7Q3ASGX7pAgMfYOR0Yh-45" value="(1,N)" style="resizable=0;html=1;whiteSpace=wrap;align=right;verticalAlign=bottom;" parent="B7Q3ASGX7pAgMfYOR0Yh-44" connectable="0" vertex="1">
          <mxGeometry x="1" relative="1" as="geometry">
            <mxPoint y="30" as="offset" />
          </mxGeometry>
        </mxCell>
        <mxCell id="B7Q3ASGX7pAgMfYOR0Yh-46" value="" style="endArrow=none;html=1;rounded=0;exitX=0.5;exitY=0;exitDx=0;exitDy=0;entryX=0.5;entryY=1;entryDx=0;entryDy=0;" parent="1" source="akSoEckrGpgi3tMZV9ip-2" target="akSoEckrGpgi3tMZV9ip-13" edge="1">
          <mxGeometry relative="1" as="geometry">
            <mxPoint x="200" y="-100" as="sourcePoint" />
            <mxPoint x="360" y="-100" as="targetPoint" />
          </mxGeometry>
        </mxCell>
        <mxCell id="B7Q3ASGX7pAgMfYOR0Yh-47" value="" style="endArrow=none;html=1;rounded=0;" parent="1" source="akSoEckrGpgi3tMZV9ip-13" target="akSoEckrGpgi3tMZV9ip-15" edge="1">
          <mxGeometry relative="1" as="geometry">
            <mxPoint x="280" as="sourcePoint" />
            <mxPoint x="280" y="-30" as="targetPoint" />
          </mxGeometry>
        </mxCell>
        <mxCell id="B7Q3ASGX7pAgMfYOR0Yh-48" value="" style="endArrow=none;html=1;rounded=0;" parent="1" source="akSoEckrGpgi3tMZV9ip-13" target="akSoEckrGpgi3tMZV9ip-14" edge="1">
          <mxGeometry relative="1" as="geometry">
            <mxPoint x="290" y="10" as="sourcePoint" />
            <mxPoint x="290" y="-20" as="targetPoint" />
          </mxGeometry>
        </mxCell>
        <mxCell id="B7Q3ASGX7pAgMfYOR0Yh-49" value="" style="endArrow=none;html=1;rounded=0;" parent="1" source="akSoEckrGpgi3tMZV9ip-2" target="akSoEckrGpgi3tMZV9ip-17" edge="1">
          <mxGeometry relative="1" as="geometry">
            <mxPoint x="300" y="20" as="sourcePoint" />
            <mxPoint x="300" y="-10" as="targetPoint" />
          </mxGeometry>
        </mxCell>
        <mxCell id="B7Q3ASGX7pAgMfYOR0Yh-50" value="" style="endArrow=none;html=1;rounded=0;" parent="1" source="akSoEckrGpgi3tMZV9ip-2" target="akSoEckrGpgi3tMZV9ip-21" edge="1">
          <mxGeometry relative="1" as="geometry">
            <mxPoint x="310" y="30" as="sourcePoint" />
            <mxPoint x="310" as="targetPoint" />
          </mxGeometry>
        </mxCell>
        <mxCell id="B7Q3ASGX7pAgMfYOR0Yh-52" value="" style="endArrow=none;html=1;rounded=0;" parent="1" source="akSoEckrGpgi3tMZV9ip-6" target="akSoEckrGpgi3tMZV9ip-8" edge="1">
          <mxGeometry relative="1" as="geometry">
            <mxPoint x="263" y="1" as="sourcePoint" />
            <mxPoint x="166" y="-71" as="targetPoint" />
          </mxGeometry>
        </mxCell>
        <mxCell id="B7Q3ASGX7pAgMfYOR0Yh-55" value="" style="endArrow=none;html=1;rounded=0;" parent="1" source="akSoEckrGpgi3tMZV9ip-5" target="B7Q3ASGX7pAgMfYOR0Yh-4" edge="1">
          <mxGeometry relative="1" as="geometry">
            <mxPoint x="-120" y="330" as="sourcePoint" />
            <mxPoint x="40" y="330" as="targetPoint" />
          </mxGeometry>
        </mxCell>
        <mxCell id="B7Q3ASGX7pAgMfYOR0Yh-57" value="" style="endArrow=none;html=1;rounded=0;" parent="1" source="B7Q3ASGX7pAgMfYOR0Yh-4" target="B7Q3ASGX7pAgMfYOR0Yh-5" edge="1">
          <mxGeometry relative="1" as="geometry">
            <mxPoint x="40" y="450" as="sourcePoint" />
            <mxPoint x="200" y="450" as="targetPoint" />
          </mxGeometry>
        </mxCell>
        <mxCell id="B7Q3ASGX7pAgMfYOR0Yh-59" value="" style="endArrow=none;html=1;rounded=0;" parent="1" source="B7Q3ASGX7pAgMfYOR0Yh-4" target="B7Q3ASGX7pAgMfYOR0Yh-6" edge="1">
          <mxGeometry relative="1" as="geometry">
            <mxPoint x="-50" y="410" as="sourcePoint" />
            <mxPoint x="-70" y="430" as="targetPoint" />
          </mxGeometry>
        </mxCell>
        <mxCell id="B7Q3ASGX7pAgMfYOR0Yh-61" value="" style="endArrow=none;html=1;rounded=0;" parent="1" source="akSoEckrGpgi3tMZV9ip-10" target="akSoEckrGpgi3tMZV9ip-3" edge="1">
          <mxGeometry relative="1" as="geometry">
            <mxPoint x="510" y="310" as="sourcePoint" />
            <mxPoint x="670" y="310" as="targetPoint" />
          </mxGeometry>
        </mxCell>
        <mxCell id="B7Q3ASGX7pAgMfYOR0Yh-62" value="" style="endArrow=none;html=1;rounded=0;" parent="1" source="akSoEckrGpgi3tMZV9ip-3" target="akSoEckrGpgi3tMZV9ip-9" edge="1">
          <mxGeometry relative="1" as="geometry">
            <mxPoint x="510" y="310" as="sourcePoint" />
            <mxPoint x="670" y="310" as="targetPoint" />
          </mxGeometry>
        </mxCell>
        <mxCell id="B7Q3ASGX7pAgMfYOR0Yh-63" value="" style="endArrow=none;html=1;rounded=0;" parent="1" source="B7Q3ASGX7pAgMfYOR0Yh-1" target="B7Q3ASGX7pAgMfYOR0Yh-3" edge="1">
          <mxGeometry relative="1" as="geometry">
            <mxPoint x="760" y="-50" as="sourcePoint" />
            <mxPoint x="920" y="-50" as="targetPoint" />
          </mxGeometry>
        </mxCell>
        <mxCell id="B7Q3ASGX7pAgMfYOR0Yh-65" value="" style="endArrow=none;html=1;rounded=0;" parent="1" source="B7Q3ASGX7pAgMfYOR0Yh-1" target="B7Q3ASGX7pAgMfYOR0Yh-2" edge="1">
          <mxGeometry relative="1" as="geometry">
            <mxPoint x="760" y="-50" as="sourcePoint" />
            <mxPoint x="920" y="-50" as="targetPoint" />
          </mxGeometry>
        </mxCell>
        <mxCell id="B7Q3ASGX7pAgMfYOR0Yh-66" value="" style="endArrow=none;html=1;rounded=0;" parent="1" source="akSoEckrGpgi3tMZV9ip-4" target="B7Q3ASGX7pAgMfYOR0Yh-1" edge="1">
          <mxGeometry relative="1" as="geometry">
            <mxPoint x="760" y="-50" as="sourcePoint" />
            <mxPoint x="920" y="-50" as="targetPoint" />
          </mxGeometry>
        </mxCell>
        <mxCell id="B7Q3ASGX7pAgMfYOR0Yh-67" value="Role" style="ellipse;whiteSpace=wrap;html=1;align=center;" parent="1" vertex="1">
          <mxGeometry x="-90" y="140" width="60" height="40" as="geometry" />
        </mxCell>
        <mxCell id="B7Q3ASGX7pAgMfYOR0Yh-68" value="" style="endArrow=none;html=1;rounded=0;" parent="1" source="B7Q3ASGX7pAgMfYOR0Yh-67" target="B7Q3ASGX7pAgMfYOR0Yh-27" edge="1">
          <mxGeometry relative="1" as="geometry">
            <mxPoint x="-60" y="150" as="sourcePoint" />
            <mxPoint x="100" y="150" as="targetPoint" />
          </mxGeometry>
        </mxCell>
        <mxCell id="B7Q3ASGX7pAgMfYOR0Yh-71" value="Role" style="ellipse;whiteSpace=wrap;html=1;align=center;" parent="1" vertex="1">
          <mxGeometry x="430" y="60" width="60" height="40" as="geometry" />
        </mxCell>
        <mxCell id="B7Q3ASGX7pAgMfYOR0Yh-72" value="" style="endArrow=none;html=1;rounded=0;" parent="1" source="B7Q3ASGX7pAgMfYOR0Yh-20" target="B7Q3ASGX7pAgMfYOR0Yh-71" edge="1">
          <mxGeometry relative="1" as="geometry">
            <mxPoint x="240" y="140" as="sourcePoint" />
            <mxPoint x="400" y="140" as="targetPoint" />
          </mxGeometry>
        </mxCell>
        <mxCell id="B7Q3ASGX7pAgMfYOR0Yh-74" value="Quote" style="ellipse;shape=doubleEllipse;margin=3;whiteSpace=wrap;html=1;align=center;" parent="1" vertex="1">
          <mxGeometry x="510" y="40" width="70" height="40" as="geometry" />
        </mxCell>
        <mxCell id="B7Q3ASGX7pAgMfYOR0Yh-75" value="" style="endArrow=none;html=1;rounded=0;" parent="1" source="B7Q3ASGX7pAgMfYOR0Yh-20" target="B7Q3ASGX7pAgMfYOR0Yh-74" edge="1">
          <mxGeometry relative="1" as="geometry">
            <mxPoint x="590" y="-20" as="sourcePoint" />
            <mxPoint x="750" y="-20" as="targetPoint" />
          </mxGeometry>
        </mxCell>
        <mxCell id="B7Q3ASGX7pAgMfYOR0Yh-76" value="Quote" style="ellipse;shape=doubleEllipse;margin=3;whiteSpace=wrap;html=1;align=center;" parent="1" vertex="1">
          <mxGeometry x="-30" y="80" width="60" height="40" as="geometry" />
        </mxCell>
        <mxCell id="B7Q3ASGX7pAgMfYOR0Yh-78" value="" style="endArrow=none;html=1;rounded=0;" parent="1" source="B7Q3ASGX7pAgMfYOR0Yh-76" target="B7Q3ASGX7pAgMfYOR0Yh-27" edge="1">
          <mxGeometry relative="1" as="geometry">
            <mxPoint x="-30" y="220" as="sourcePoint" />
            <mxPoint x="130" y="220" as="targetPoint" />
          </mxGeometry>
        </mxCell>
      </root>
    </mxGraphModel>
  </diagram>
</mxfile>
